<?xml version="1.0" standalone="no"?>
<!DOCTYPE svg PUBLIC "-//W3C//DTD SVG 20010904//EN"
 "http://www.w3.org/TR/2001/REC-SVG-20010904/DTD/svg10.dtd">
<svg version="1.0" xmlns="http://www.w3.org/2000/svg"
 width="9388.000000pt" height="2115.000000pt" viewBox="0 0 9388.000000 2115.000000"
 preserveAspectRatio="xMidYMid meet">

<g transform="translate(0.000000,2115.000000) scale(0.100000,-0.100000)"
fill="#000000" stroke="none">
<path d="M54695 13793 c-1221 -2115 -2228 -3861 -2238 -3879 l-18 -34 896 2
896 3 297 512 297 513 2095 0 2095 0 295 -515 295 -514 898 -1 899 0 -39 69
c-121 217 -4439 7691 -4443 7691 -3 0 -1004 -1731 -2225 -3847z m2825 -291
c324 -563 590 -1027 590 -1032 0 -6 -438 -10 -1191 -10 -1007 0 -1190 2 -1187
14 6 26 1182 2056 1190 2054 4 -2 273 -463 598 -1026z"/>
<path d="M26210 13500 l0 -3620 780 0 780 0 0 1420 0 1420 2065 0 2065 0 0
-1420 0 -1420 775 0 775 0 0 3620 0 3620 -775 0 -775 0 0 -1425 0 -1425 -2065
0 -2065 0 0 1425 0 1425 -780 0 -780 0 0 -3620z"/>
<path d="M34490 13500 l0 -3620 3620 0 3620 0 0 775 0 775 -2845 0 -2845 0 0
645 0 645 2585 0 2585 0 0 775 0 775 -2585 0 -2585 0 0 650 0 650 2845 0 2845
0 0 775 0 775 -3620 0 -3620 0 0 -3620z"/>
<path d="M42460 17112 c0 -4 812 -819 1805 -1812 l1805 -1805 -1807 -1807
-1808 -1808 1100 0 1100 0 1257 1257 1258 1258 1258 -1258 1257 -1257 1100 0
1100 0 -1808 1808 -1807 1807 1805 1805 c993 993 1805 1808 1805 1812 0 5
-492 8 -1092 8 l-1093 0 -1262 -1262 -1263 -1263 -1263 1263 -1262 1262 -1093
0 c-600 0 -1092 -3 -1092 -8z"/>
<path d="M61970 13500 l0 -3620 775 0 775 0 0 1420 0 1420 2585 0 2585 0 0
775 0 775 -2585 0 -2585 0 0 650 0 650 2845 0 2845 0 0 775 0 775 -3620 0
-3620 0 0 -3620z"/>
<path d="M72246 17110 c-880 -55 -1505 -360 -1877 -914 -192 -286 -310 -605
-374 -1010 -45 -288 -47 -378 -43 -1786 5 -1442 3 -1393 63 -1708 196 -1022
837 -1619 1900 -1771 279 -40 387 -42 1755 -38 1147 3 1330 6 1435 20 643 88
1069 269 1413 601 372 359 574 839 653 1551 16 142 24 2412 10 2691 -37 717
-203 1211 -544 1621 -292 351 -763 598 -1319 693 -319 54 -307 53 -1673 56
-698 1 -1328 -2 -1399 -6z m2620 -1563 c446 -82 679 -322 755 -779 9 -53 13
-362 16 -1153 5 -1331 1 -1417 -81 -1637 -47 -125 -90 -192 -186 -288 -68 -68
-103 -95 -175 -132 -99 -50 -181 -79 -295 -105 -67 -15 -197 -17 -1260 -21
-1263 -4 -1320 -2 -1492 44 -344 92 -540 308 -625 684 -15 67 -17 197 -20
1275 -3 831 -1 1230 7 1297 57 502 348 780 868 828 48 4 607 7 1242 6 1032 -2
1165 -4 1246 -19z"/>
<path d="M78220 13500 l0 -3620 3620 0 3620 0 0 775 0 775 -2845 0 -2845 0 0
2845 0 2845 -775 0 -775 0 0 -3620z"/>
<path d="M86640 13500 l0 -3620 2433 0 c1603 0 2479 4 2568 10 707 56 1238
272 1609 656 327 339 517 777 595 1370 32 248 37 492 32 1724 -4 1282 -5 1293
-53 1580 -183 1095 -847 1721 -1979 1864 -263 34 -449 36 -2827 36 l-2378 0 0
-3620z m4920 2047 c435 -81 667 -314 747 -751 15 -81 17 -218 21 -1196 4
-1185 0 -1328 -43 -1494 -48 -190 -103 -294 -220 -412 -142 -143 -320 -222
-570 -253 -62 -8 -587 -11 -1697 -11 l-1608 0 0 2070 0 2071 1638 -4 c1509 -2
1644 -4 1732 -20z"/>
<path d="M2014 14042 c-215 -372 -589 -1019 -831 -1437 -1019 -1762 -1155
-1998 -1164 -2019 -9 -19 66 -155 587 -1056 328 -569 764 -1325 969 -1680 204
-355 744 -1291 1200 -2080 455 -789 1272 -2204 1815 -3145 543 -940 1051
-1821 1130 -1957 l143 -248 2698 0 2699 0 0 420 0 420 -2456 2 -2456 3 -315
545 c-174 300 -701 1213 -1173 2030 -1025 1774 -2096 3629 -2882 4990 -316
547 -670 1160 -786 1361 -117 202 -212 372 -212 377 0 6 141 256 313 554 173
299 538 932 812 1408 274 476 671 1163 881 1528 l382 662 -481 0 -482 0 -391
-678z"/>
<path d="M4373 14708 c-6 -7 -179 -305 -385 -663 -207 -357 -582 -1008 -835
-1445 -253 -437 -621 -1073 -817 -1413 l-357 -618 197 -342 c194 -338 548
-951 2104 -3647 436 -756 1177 -2039 1645 -2850 469 -812 867 -1504 886 -1538
l34 -62 2208 0 2207 0 0 420 0 420 -1963 0 -1962 0 -562 972 c-308 535 -961
1666 -1451 2513 -489 847 -1223 2118 -1631 2825 -643 1113 -741 1287 -732
1306 5 12 160 282 344 601 332 575 967 1677 1645 2853 195 338 363 630 374
648 l20 32 -480 0 c-372 0 -482 -3 -489 -12z"/>
<path d="M7790 12998 l0 -1723 2268 -1442 c1247 -793 2408 -1531 2579 -1640
l313 -198 0 -2222 c0 -1223 3 -2223 8 -2222 4 0 210 130 457 288 l450 289 3
2155 2 2155 -1482 942 c-816 518 -1977 1256 -2580 1639 l-1097 696 -1 1503 0
1502 -460 0 -460 0 0 -1722z"/>
<path d="M9570 13458 l0 -1263 348 -221 c191 -121 1344 -854 2562 -1629 1218
-774 2222 -1414 2231 -1422 15 -13 16 -179 11 -2129 -3 -1253 -1 -2114 4
-2113 5 0 214 132 464 293 l455 292 3 2046 2 2046 -542 344 c-299 190 -1274
809 -2168 1378 -894 568 -1810 1150 -2037 1294 l-412 261 -1 1043 0 1042 -460
0 -460 0 0 -1262z"/>
<path d="M12950 13548 l1 -1173 450 -285 c248 -157 454 -286 460 -288 5 -2 9
553 9 1457 l0 1461 -460 0 -460 0 0 -1172z"/>
<path d="M14730 12983 l0 -1738 358 -227 c196 -125 403 -256 460 -292 l102
-66 0 2030 0 2030 -460 0 -460 0 0 -1737z"/>
<path d="M18111 14698 c7 -13 171 -297 364 -633 194 -335 574 -995 845 -1465
271 -470 646 -1120 832 -1443 l340 -589 -45 -76 c-24 -43 -381 -660 -792
-1372 -412 -712 -1139 -1972 -1618 -2800 -478 -828 -1108 -1920 -1400 -2427
l-532 -922 -1967 -1 -1968 0 0 -420 0 -420 2209 0 2210 0 54 92 c30 51 460
797 957 1658 497 861 1154 1999 1460 2530 307 531 701 1215 877 1520 176 305
590 1024 921 1597 l602 1041 -387 669 c-212 367 -576 997 -808 1398 -232 402
-598 1034 -812 1405 l-390 675 -482 3 -482 2 12 -22z"/>
<path d="M20088 14688 c11 -18 179 -310 374 -648 699 -1213 1317 -2285 1646
-2854 183 -318 338 -589 344 -601 8 -18 -5 -47 -83 -181 -363 -628 -3511
-6078 -4957 -8581 l-324 -563 -1658 0 -1658 0 -43 66 c-82 126 -203 229 -352
300 -124 58 -182 69 -362 69 -155 -1 -163 -2 -257 -34 -109 -37 -228 -106
-308 -177 -112 -102 -210 -265 -251 -419 -30 -113 -30 -307 0 -420 82 -307
309 -534 616 -616 113 -30 307 -30 420 0 199 53 391 188 493 348 l27 43 1910
0 1910 0 510 883 c280 485 902 1564 1383 2397 1404 2432 2388 4137 3157 5470
395 685 738 1280 762 1322 l45 76 -378 654 c-207 359 -575 995 -817 1413 -241
418 -611 1058 -820 1422 l-382 662 -483 1 -484 0 20 -32z m-6920 -13553 c60
-33 111 -84 144 -147 19 -36 23 -58 23 -133 0 -78 -4 -97 -27 -141 -36 -68
-115 -138 -181 -160 -156 -52 -316 15 -388 162 -42 84 -45 180 -9 262 29 67
119 152 186 175 76 26 185 18 252 -18z"/>
<path d="M7792 7728 l3 -2392 453 -298 c250 -164 456 -298 458 -298 2 0 4
1081 4 2403 l-1 2402 -453 288 c-249 158 -456 287 -460 287 -3 0 -5 -1076 -4
-2392z"/>
<path d="M9567 8188 c-4 -442 -7 -1525 -7 -2408 l0 -1605 457 -300 c251 -165
460 -302 465 -303 4 -2 7 1087 6 2419 l-3 2423 -450 288 c-247 158 -453 287
-456 287 -3 1 -9 -360 -12 -801z"/>
</g>
</svg>
